<?xml version="1.0" encoding="UTF-8"?>
<svg xmlns="http://www.w3.org/2000/svg" xmlns:xlink="http://www.w3.org/1999/xlink" width="16px" height="16px" viewBox="0 0 16 16" version="1.1">
<g id="surface1">
<path style=" stroke:none;fill-rule:nonzero;fill:rgb(0%,0%,0%);fill-opacity:1;" d="M 12.667969 0 L 3.332031 0 C 1.492188 0 0 1.492188 0 3.332031 L 0 12.667969 C 0 14.507812 1.492188 16 3.332031 16 L 12.667969 16 C 14.507812 16 16 14.507812 16 12.667969 L 16 3.332031 C 16 1.492188 14.507812 0 12.667969 0 Z M 5.332031 12.667969 L 3.332031 12.667969 L 3.332031 5.332031 L 5.332031 5.332031 Z M 4.332031 4.488281 C 3.6875 4.488281 3.167969 3.960938 3.167969 3.3125 C 3.167969 2.664062 3.6875 2.136719 4.332031 2.136719 C 4.976562 2.136719 5.5 2.664062 5.5 3.3125 C 5.5 3.960938 4.976562 4.488281 4.332031 4.488281 Z M 13.332031 12.667969 L 11.332031 12.667969 L 11.332031 8.929688 C 11.332031 6.683594 8.667969 6.855469 8.667969 8.929688 L 8.667969 12.667969 L 6.667969 12.667969 L 6.667969 5.332031 L 8.667969 5.332031 L 8.667969 6.511719 C 9.597656 4.785156 13.332031 4.660156 13.332031 8.160156 Z M 13.332031 12.667969 "/>
</g>
</svg>
