<?xml version="1.0" encoding="UTF-8"?>
<svg xmlns="http://www.w3.org/2000/svg" xmlns:xlink="http://www.w3.org/1999/xlink" width="16px" height="16px" viewBox="0 0 16 16" version="1.1">
<g id="surface1">
<path style=" stroke:none;fill-rule:evenodd;fill:rgb(10.588235%,12.156863%,13.72549%);fill-opacity:1;" d="M 8 0 C 3.578125 0 0 3.578125 0 8 C 0 11.539062 2.289062 14.53125 5.46875 15.589844 C 5.871094 15.660156 6.019531 15.421875 6.019531 15.210938 C 6.019531 15.019531 6.011719 14.390625 6.011719 13.71875 C 4 14.089844 3.480469 13.230469 3.320312 12.78125 C 3.230469 12.550781 2.839844 11.839844 2.5 11.648438 C 2.21875 11.5 1.820312 11.128906 2.488281 11.121094 C 3.121094 11.109375 3.570312 11.699219 3.71875 11.941406 C 4.441406 13.148438 5.589844 12.808594 6.050781 12.601562 C 6.121094 12.078125 6.328125 11.730469 6.558594 11.53125 C 4.78125 11.328125 2.921875 10.640625 2.921875 7.578125 C 2.921875 6.710938 3.230469 5.988281 3.738281 5.429688 C 3.660156 5.230469 3.378906 4.410156 3.820312 3.308594 C 3.820312 3.308594 4.488281 3.101562 6.019531 4.128906 C 6.660156 3.949219 7.339844 3.859375 8.019531 3.859375 C 8.699219 3.859375 9.378906 3.949219 10.019531 4.128906 C 11.550781 3.089844 12.21875 3.308594 12.21875 3.308594 C 12.660156 4.410156 12.378906 5.230469 12.300781 5.429688 C 12.808594 5.988281 13.121094 6.699219 13.121094 7.578125 C 13.121094 10.648438 11.25 11.328125 9.46875 11.53125 C 9.761719 11.78125 10.011719 12.261719 10.011719 13.011719 C 10.011719 14.078125 10 14.941406 10 15.210938 C 10 15.421875 10.148438 15.671875 10.550781 15.589844 C 13.710938 14.53125 16 11.53125 16 8 C 16 3.578125 12.421875 0 8 0 Z M 8 0 "/>
</g>
</svg>
